<svg width="1920" height="1440" viewBox="0 0 1920 1440" xmlns="http://www.w3.org/2000/svg"><title>illustration_1</title><g fill="none" fill-rule="evenodd"><path d="M36.3 793.5c-40.8 582.9 368.1 524.6 854.3 554.9 486.2 30.3 883.6-6.3 906.5-444.9 12.3-235.6-31.1-486.9-204.1-643.7-149.1-135.1-409.7-191.5-634.8-205.6-319.5-20-654.2 82.1-820.4 302.2-86.9 114.9-91 286.8-101.5 437.1z" fill="#BEDFF6" opacity=".2"/><path d="M36.3 793.5c-40.8 582.9 368.1 524.6 854.3 554.9 486.2 30.3 883.6-6.3 906.5-444.9 12.3-235.6-31.1-486.9-204.1-643.7-149.1-135.1-409.7-191.5-634.8-205.6-319.5-20-654.2 82.1-820.4 302.2-86.9 114.9-91 286.8-101.5 437.1z" opacity=".2" fill="#BEDFF6"/><g transform="translate(1204 260)"><path stroke="#595B5C" stroke-width="3" fill="#FFF" d="M668.692 359.377L151.25 577.144.28 218.418 517.72.652z"/><g transform="translate(408 147)" fill="#D8D4D0"><circle cx="48.5" cy="8.8" r="8.6"/><circle cx="8.8" cy="25.5" r="8.6"/></g><g transform="translate(254 195)" fill="#D8D4D0"><circle cx="88.3" cy="8.9" r="8.6"/><circle cx="48.5" cy="25.6" r="8.6"/><circle cx="8.8" cy="42.3" r="8.6"/></g><g transform="translate(100 260)" fill="#D8D4D0"><circle cx="88.3" cy="8.7" r="8.6"/><circle cx="48.6" cy="25.4" r="8.6"/><circle cx="8.9" cy="42.1" r="8.6"/></g><circle stroke="#595B5C" stroke-width="3" fill="#FFF" cx="158" cy="425.3" r="33.6"/><path d="M217.6 333.9L135 368.7" stroke="#595B5C" stroke-width="3"/><circle stroke="#595B5C" stroke-width="3" fill="#FFF" cx="317.1" cy="392.9" r="21.5"/><path d="M337 384.5l57.9-24.4s16.4-14.4-9.4-22.2c-25.7-7.9-67.2-22.1-67.2-22.1s-22.1-3.8-24.5-27.1c-2.3-23.3 37.9-25.3 37.9-25.3" stroke="#595B5C" stroke-width="3"/><circle stroke="#595B5C" stroke-width="3" fill="#FFF" cx="352.4" cy="261.3" r="21.5"/><path fill="#E9F6FC" d="M631.2 273.1l35.9 85.4-96.4 40.6z"/><circle fill="#D8D4D0" cx="491.2" cy="141.1" r="8.6"/></g><path d="M122.6 301.9c-.8 0-1.5-.7-1.5-1.5V125c0-.8.7-1.5 1.5-1.5h293.2c.8 0 1.5.7 1.5 1.5v175.4c0 .8-.7 1.5-1.5 1.5H122.6z" fill="#FFF"/><path d="M415.8 125v175.4H122.6V125h293.2zm0-3H122.6c-1.7 0-3 1.3-3 3v175.4c0 1.7 1.3 3 3 3h293.2c1.7 0 3-1.3 3-3V125c0-1.7-1.4-3-3-3z" fill="#595B5C"/><g stroke-width="3"><path d="M123.5 153.3h291.4" stroke="#F2B387"/><path d="M123.5 168h291.4M123.5 182.6h291.4M123.5 197.3h291.4M123.5 212h291.4M123.5 226.6h291.4M123.5 241.3h291.4M123.5 256h291.4M123.5 270.7h291.4M123.5 285.3h291.4" stroke="#E9F6FC"/></g><g fill="#D8D5D0"><path d="M153.4 199.2h206.3v10.6H153.4zM153.4 228.7h239.9v10.6H153.4zM153.4 169.7h239.9v10.6H153.4zM153.4 258.1h127.7v10.6H153.4z"/></g><path d="M843 633.2c-.5 0-.9-.1-1.4-.3l-293-124c-1.8-.8-2.6-2.8-1.9-4.6L620.9 329c.6-1.3 1.9-2.1 3.2-2.1.5 0 .9.1 1.4.3l293 124c.9.4 1.5 1 1.9 1.9.3.9.3 1.8 0 2.7l-74.2 175.3c-.6 1.3-1.9 2.1-3.2 2.1z" fill="#FFF"/><path d="M624.1 330.4l293 124L843 629.7l-293-124 74.1-175.3zm0-7c-2.7 0-5.3 1.6-6.5 4.3L543.5 503c-.7 1.7-.7 3.6 0 5.4.7 1.8 2.1 3.1 3.8 3.8l293 124c.9.4 1.8.6 2.7.6 2.7 0 5.3-1.6 6.5-4.3l74.2-175.3c.7-1.7.7-3.6 0-5.4-.7-1.8-2.1-3.1-3.8-3.8l-293-124c-1-.4-1.9-.6-2.8-.6z" fill="#595B5C"/><g stroke-width="3"><path d="M854 601L562.8 477.8" stroke="#F2B387"/><path d="M860.2 586.3L569 463.2M866.4 571.7L575.2 448.5M872.6 557L581.4 433.8M878.8 542.4L587.6 419.2M885 527.7L593.8 404.5M891.2 513L600 389.9M897.4 498.4L606.2 375.2M903.6 483.7L612.4 360.5M909.8 469L618.6 345.9" stroke="#E9F6FC"/></g><g fill="#D8D5D0"><path d="M608.237 430.454l239.736 101.413-4.48 10.591-239.736-101.413zM620.712 401.064l239.736 101.413-4.48 10.591-239.736-101.413zM595.816 459.975l239.736 101.413-4.48 10.591-239.736-101.413zM745.322 418.992l127.65 53.999-4.48 10.591-127.65-53.999z"/></g><path d="M122.6 826.9c-1.9 0-3.5-1.6-3.5-3.5V648c0-1.9 1.6-3.5 3.5-3.5h293.2c1.9 0 3.5 1.6 3.5 3.5v175.4c0 1.9-1.6 3.5-3.5 3.5H122.6z" fill="#FFF"/><path d="M415.8 648v175.4H122.6V648h293.2zm0-7H122.6c-3.9 0-7 3.1-7 7v175.4c0 3.9 3.1 7 7 7h293.2c3.9 0 7-3.1 7-7V648c0-3.9-3.2-7-7-7z" fill="#595B5C"/><g stroke-width="3"><path d="M123.5 676.3h291.4" stroke="#F2B387"/><path d="M123.5 691h291.4M123.5 705.6h291.4M123.5 720.3h291.4M123.5 735h291.4M123.5 749.6h291.4M123.5 764.3h291.4M123.5 779h291.4M123.5 793.7h291.4M123.5 808.3h291.4" stroke="#E9F6FC"/></g><g fill="#D8D5D0"><path d="M153.4 722.2h239.9v10.6H153.4zM153.4 692.7h239.9v10.6H153.4z"/></g><path d="M122.6 1086.4c-.8 0-1.5-.7-1.5-1.5V909.5c0-.8.7-1.5 1.5-1.5h293.2c.8 0 1.5.7 1.5 1.5v175.4c0 .8-.7 1.5-1.5 1.5H122.6z" fill="#FFF"/><path d="M415.8 909.5v175.4H122.6V909.5h293.2zm0-3H122.6c-1.7 0-3 1.3-3 3v175.4c0 1.7 1.3 3 3 3h293.2c1.7 0 3-1.3 3-3V909.5c0-1.7-1.4-3-3-3z" fill="#595B5C"/><g stroke-width="3"><path d="M123.5 937.8h291.4" stroke="#F2B387"/><path d="M123.5 952.5h291.4M123.5 967.1h291.4M123.5 981.8h291.4M123.5 996.5h291.4M123.5 1011.1h291.4M123.5 1025.8h291.4M123.5 1040.5h291.4M123.5 1055.2h291.4M123.5 1069.8h291.4" stroke="#E9F6FC"/></g><g fill="#D8D5D0"><path d="M153.4 983.7h206.3v10.6H153.4zM153.4 1013.2h239.9v10.6H153.4zM153.4 954.2h239.9v10.6H153.4zM153.4 1042.6h75.4v10.6h-75.4z"/></g><path d="M122.6 1347.9c-.8 0-1.5-.7-1.5-1.5V1171c0-.8.7-1.5 1.5-1.5h293.2c.8 0 1.5.7 1.5 1.5v175.4c0 .8-.7 1.5-1.5 1.5H122.6z" fill="#FFF"/><path d="M415.8 1171v175.4H122.6V1171h293.2zm0-3H122.6c-1.7 0-3 1.3-3 3v175.4c0 1.7 1.3 3 3 3h293.2c1.7 0 3-1.3 3-3V1171c0-1.7-1.4-3-3-3z" fill="#595B5C"/><g stroke-width="3"><path d="M123.5 1199.3h291.4" stroke="#F2B387"/><path d="M123.5 1214h291.4M123.5 1228.6h291.4M123.5 1243.3h291.4M123.5 1258h291.4M123.5 1272.6h291.4M123.5 1287.3h291.4M123.5 1302h291.4M123.5 1316.7h291.4M123.5 1331.3h291.4" stroke="#E9F6FC"/></g><g fill="#D8D5D0"><path d="M153.4 1245.2h239.9v10.6H153.4zM153.4 1274.7h139.3v10.6H153.4zM153.4 1215.7h239.9v10.6H153.4z"/></g><path d="M579.5 302s-16.3 63.9-13.8 67.6c2.4 3.7 41.5 32.8 41.5 32.8l12.3-16.2-40-84.2z" stroke="#5A5C5D" stroke-width="7" fill="#F4E2D7"/><path d="M617.3 254.5s-38 53.9-37.1 58.2c1 4.3 27 45.4 27 45.4l17.2-10.7-7.1-92.9z" stroke="#5A5C5D" stroke-width="7" fill="#F4E2D7"/><path d="M622.5 453.1c-12 0-21.3-10.2-23-12.3-1.1-1.3-2.9-3.5-4.7-29-.2-3.2-.4-6.3-.6-9.3L585 423c-.4.9-1.1 1.5-2 1.9-.4.1-.8.2-1.2.2-.5 0-1-.1-1.5-.3l-20.6-9.7c-5.9-2.8-8.2-7.8-8.5-8.4-.1-.1-.1-.2-.1-.4-.2-.6-19.6-63.7-23-73-1.2-3.4-3.4-8.1-5.7-13.1-4.9-10.7-8.1-18-8.2-22.1-.2-6.3 4.6-13.6 15.1-22.9 6.4-5.7 64.6-103.4 72.5-120.2 6.1-13 5.2-19 5.2-19-.1-.4-.1-.8 0-1.2.7-4.1 17-99.6 24-114.5 5.5-11.6 23.7-111.9 30.3-149.5.2-1.1.9-2 1.8-2.5.5-.3 1.1-.4 1.6-.4s1 .1 1.4.3l138.1 62.1c.9.4 1.6 1.1 1.9 2 .3.9.2 1.9-.2 2.8-1 1.9-99.4 190.4-104.4 201.1-3.6 7.6-2.9 11.6-.9 22.4.5 3 1.2 6.5 1.8 10.6 3 19.8 5.5 63.6-1.8 79.6-3.4 7.5-6.1 18.1-8.7 28.4-2.5 10-4.9 19.4-7.9 25.8-2.8 5.9-5.4 9.9-7.5 13.1-2.5 3.8-4.2 6.5-5.1 10.3-1.5 6.7-4.4 13.9-6.9 20.2-2.2 5.6-4.4 10.9-4.8 14-.4 3.3-.9 7.2-1.4 11.9-2.7 24.2-6.8 60.7-20 73.6-4.6 4.7-10 7-15.8 7zM587.4 379c2.1 2.3 4.2 5.7 5.9 8.6l.5-1.1 10-31.5c1-16.5 2-34.3 2.4-45.6-8.6 8.2-23.7 13.8-30.4 16 3.2 16 6.9 32.8 7.9 34.9 2.8 5.5 3.2 11.6 3.4 15.7.1 1.1.2 2.3.3 3z" fill="#F4E2D7"/><path d="M664.9-128.6L803-66.5s-99.4 190.3-104.5 201.3c-5.1 10.9-2.3 15.9.5 35s5.4 62.5-1.6 77.6c-6.9 15.2-10.6 41.5-16.5 54.1-5.9 12.6-11 16.1-12.8 24.2-2.8 12.4-10.8 27.1-11.8 34.5-2.8 20.3-5.7 69-20.4 83.4-4.5 4.4-9.1 6-13.4 6-9.7 0-17.9-8.2-20.3-11-3.5-4.1-5.1-50.9-5.1-50.9l10.2-32.1s3.7-58.6 2.2-58.6c-.2 0-.4.6-.6 1.9-3 14.2-37.1 24.1-37.1 24.1s7 35.2 8.9 38.9c4 7.8 2.5 17.5 3.9 19 4.1 4.4 8.9 14.1 9.2 14.6l-11.7 26.1s-15.8-7.4-20.6-9.7c-4.9-2.3-6.8-6.6-6.8-6.6s-19.6-63.6-23-73.2c-3.4-9.5-13.5-28.1-13.7-34.1-.1-6 6.3-13.4 13.9-20.2 7.6-6.8 66.5-106.8 73.4-121.4 6.9-14.6 5.5-21.2 5.5-21.2s16.8-99 23.7-113.6c6.7-14.4 30.4-150.2 30.4-150.2zm-67.8 516.3l-.1.4-3.4 7.4 3.5-7.8zm67.8-523.3c-1.1 0-2.3.3-3.3.8-1.9 1-3.2 2.9-3.6 5-9.1 52.1-25.3 138.6-30 148.6-7.1 15-22.5 105.1-24.2 115.4-.2 1-.3 1.5 0 2.4 0 1 0 6.4-4.9 16.9-7.5 15.9-64.8 112.3-71.7 119.2-11.3 10-16.4 18.1-16.2 25.5.1 4.8 3.3 12.1 8.5 23.5 2.2 4.9 4.4 9.5 5.6 12.8 3.3 9.3 22.7 72.2 22.9 72.8.1.3.2.5.3.7.3.7 3.2 6.9 10.2 10.2l20.6 9.7c.9.4 2 .7 3 .7.8 0 1.6-.1 2.4-.4 1.8-.7 3.2-2 4-3.7l3.4-7.6c1.7 22.2 3.6 24.4 5.2 26.2 1.9 2.3 12.2 13.5 25.7 13.5 6.7 0 12.9-2.7 18.3-8 13-12.7 17.4-43.1 21-75.7.5-4.6 1-8.5 1.4-11.8.4-2.8 2.5-8.1 4.6-13.2 2.6-6.5 5.5-13.8 7.1-20.7.7-3.2 2.2-5.4 4.6-9.2 2.2-3.3 4.9-7.5 7.7-13.5 3.1-6.7 5.6-16.3 8.1-26.4 2.5-10.1 5.1-20.5 8.4-27.8 8.1-17.7 4.8-63.4 2.1-81.6-.6-4.2-1.2-7.7-1.8-10.7-1.9-10.5-2.4-13.7.7-20.3 5-10.7 103.4-199.1 104.4-201 .9-1.7 1-3.7.4-5.5-.6-1.8-2-3.3-3.7-4.1L667.7-135c-.9-.4-1.8-.6-2.8-.6zm-85.1 463.3c3.4-1.2 7.8-2.9 12.4-5.1 3.9-1.9 7.3-3.7 10.2-5.7-.5 10.6-1.2 24.4-2 37.4l-8 25.2c-.5-.7-1-1.4-1.6-2.1 0-.5-.1-1.2-.1-1.7-.3-4.3-.7-10.8-3.7-16.9-1.1-2.5-4.3-16.8-7.2-31.1z" fill="#5A5C5D"/><path d="M905.3 428.9h-.5c-11.5-.9-18.2-12.1-18.4-12.6-.3-.5-.4-1.1-.5-1.6 0-.7-.4-16.8 15.2-55.9 9.6-23.9 16-40.3 19.6-49.4-4.7 2-10.9 3.9-16.5 3.9-4.2 0-7.7-1-10.4-3.1-11.9-8.9-9.1-14.9-5.6-19.9 1.6-2.2 3.9-3.1 6.4-4 3.6-1.3 8.2-3 13.3-10 9.1-12.5 32.1-54.3 33.2-57.2.3-.8.7-2.6 1.2-4.5 2.3-9.3 4.5-17.2 7.9-20.2.7-.8 3.7-4.9 6.8-9.3 8.4-11.8 22.4-31.6 37.7-49.4 19.2-22.4 34.1-34.5 45.7-37.1 6.5-1.5 62.4-35.1 80.8-46.1 5.5-3.3 9.3-5.6 10.8-6.4 7.3-6.6 22-17.5 26.6-20.9 2.1-2.1 7-5.9 18.2-14.5 9.7-7.4 23.2-17.7 40.3-30.6 29-21.8 58.3-43.8 58.6-44 .6-.5 1.3-.7 2.1-.7h.3l309.7 25.2c1.6.1 2.9 1.3 3.2 2.8.3 1.6-.5 3.1-1.9 3.8-112.4 54.4-326.5 158-331.7 161-2.5 1.5-17 8.1-40.8 18.6-15 6.7-30.4 13.6-35.4 16-7.6 4.8-10.9 7.3-12.3 8.6-2.8 2.6-7 5.8-11.8 9.5-9.6 7.4-22.7 17.5-24.9 23.6-1.3 3.8-5 17.3-8.9 31.7-8.3 30.5-14.3 52.4-16.8 57.2-.7 1.4-1.4 3.3-2.2 5.4-3.1 8.6-7.7 21.5-26.8 30.3-8.6 4-14.9 5.9-19.2 5.9-1.6 0-2.9-.3-3.9-.7-2.2 1.5-5.5 2.9-10.1 4.4-1.1.3-2.1.7-3.2 1-7.7 2.5-14.4 4.6-20.1 4.6-2.6 0-4.9-.5-7-1.4-3.1-1.4-5.4-2.8-7-4-3.7 3.9-11.1 10.6-18.5 10.6-1.3 0-2.6-.2-3.8-.6-8.4-2.9-19.7-11.4-20.7-18.4-7.6 14.5-18.6 35-23.9 43-2.7 4-6.2 11.6-9.8 19.6-10.1 22.2-16.9 35.8-25 35.8z" fill="#F4E2D7"/><path d="M1277.8-61.2L1587.4-36s-327.4 158.3-332 161.1c-4.5 2.8-65.3 29.2-76.1 34.6-5.7 3.6-10.5 6.9-12.9 9.1-8.9 8.3-34 24.4-37.6 34.6-3.6 10.2-21.4 80.5-25.5 88.4-4.1 8-4.9 23.8-27.3 34.1-9.3 4.3-14.7 5.6-17.8 5.6-3.4 0-4-1.5-4.1-2.2-.1.8-1.3 2.9-10.9 6-9 2.8-16.4 5.5-22.2 5.5-2 0-3.9-.3-5.5-1.1-6.4-2.9-8.7-5.7-8.7-5.7s-9.7 12-18.1 12c-.9 0-1.8-.1-2.7-.4-9-3.1-19.3-12.1-18.4-16.5.9-4.4 1.4-15.6 1.4-15.6s-23.3 45.6-31.7 58.1c-8.3 12.4-22.2 53.9-32 53.9h-.3c-9.8-.7-15.7-10.8-15.7-10.8s-.6-15.6 15-54.5 22.9-57.8 22.9-57.8-12.6 7.6-23 7.6c-3.1 0-6-.7-8.3-2.4-10.1-7.6-7.5-11.3-4.8-15.1 2.7-3.8 10.6-1.7 19.6-14 9-12.3 32.4-54.5 33.7-58.1 1.3-3.6 4.3-20 8.1-23.3 3.9-3.4 57.7-88 88.6-95 8.8-2 87-49.8 92.9-53.1 7.1-6.4 22-17.5 26.7-21-.2-1.5 117.1-89.2 117.1-89.2zm0-7c-1.5 0-3 .5-4.2 1.4-.3.2-29.7 22.2-58.6 44-17 12.8-30.6 23.1-40.3 30.6-5.8 4.4-10.3 7.9-13.3 10.3-1.7 1.4-3 2.4-3.9 3.1-.4.4-1 .8-1.5 1.4-6 4.4-19 14.1-26.1 20.5-1.7 1-5.4 3.2-10.5 6.3-17.9 10.8-72.5 43.5-79.8 45.7-24.3 5.5-56.8 47.5-85.5 87.9-2.7 3.9-5.6 7.9-6.4 8.9-4 3.8-6.3 11.8-8.8 21.8-.4 1.6-.9 3.5-1.1 4.2-1.7 4.1-24.2 44.5-32.8 56.3-4.5 6.2-8.3 7.6-11.7 8.8-2.6.9-5.8 2.1-8 5.3-1.7 2.4-4.2 5.9-3.6 11 .7 6.2 6 10.8 10 13.8 3.4 2.5 7.6 3.8 12.5 3.8 3.5 0 7.1-.7 10.5-1.6-3.8 9.6-9.3 23.7-16.8 42.2-15.7 39.1-15.6 55.6-15.5 57.4 0 1.1.4 2.3.9 3.3.8 1.4 8.1 13.3 21.2 14.3h.8c10.4 0 17.5-14.4 28.2-37.8 3.6-7.9 7-15.4 9.6-19.1 4.7-7 13.6-23.4 20.9-37.2 4.8 6.4 13.6 11.8 19.7 13.9 1.6.6 3.3.8 5 .8 7.4 0 14.4-5.3 18.9-9.5 1.4.9 3.1 1.8 5.1 2.7 2.5 1.1 5.3 1.7 8.4 1.7 6.2 0 13.1-2.2 21.1-4.8 1-.3 2.1-.7 3.2-1 3.4-1.1 6.8-2.3 9.5-3.9 1 .2 2.2.4 3.5.4 4.9 0 11.6-2 20.7-6.2 20.4-9.4 25.4-23.2 28.7-32.3.7-2 1.3-3.7 2-5 2.7-5.1 8.5-26.3 17.1-57.9 3.9-14.2 7.5-27.7 8.8-31.4 1.8-5.1 15.5-15.7 23.7-22 4.9-3.8 9.1-7 12-9.7 1-1 3.9-3.3 11.6-8.1 5.1-2.5 20.4-9.3 35.1-15.9 25.7-11.4 38.2-17.1 41.1-18.8 7.4-4 219.9-106.9 331.5-160.8 2.8-1.4 4.4-4.5 3.8-7.6-.6-3.1-3.2-5.4-6.3-5.7l-309.7-25.2c-.4-.3-.6-.3-.7-.3z" fill="#5A5C5D"/><path d="M701.4 1063.2c-.7 1.5-1.3 2.9-2 4.3-.7-1-1.1-1.6-1.1-1.6s1.1-1 3.1-2.7z" stroke="#5A5C5D" stroke-width="7"/><g fill="#595B5C"><path d="M415.8 909.5v175.4H122.6V909.5h293.2zm0-7H122.6c-3.9 0-7 3.1-7 7v175.4c0 3.9 3.1 7 7 7h293.2c3.9 0 7-3.1 7-7V909.5c0-3.9-3.2-7-7-7zM415.8 1171v175.4H122.6V1171h293.2zm0-7H122.6c-3.9 0-7 3.1-7 7v175.4c0 3.9 3.1 7 7 7h293.2c3.9 0 7-3.1 7-7V1171c0-3.9-3.2-7-7-7z"/></g><path d="M1547.1 1080.6c-.7 0-1.3-.5-1.5-1.2l-40.2-170.8c-.2-.8.3-1.6 1.1-1.8l285.4-67.2h.3c.7 0 1.3.5 1.5 1.2l40.2 170.8c.1.4 0 .8-.2 1.1-.2.3-.5.6-.9.7l-285.4 67.2h-.3z" fill="#FFF"/><path d="M1792.3 841.1l40.2 170.8-285.4 67.2-40.2-170.8 285.4-67.2zm0-3c-.2 0-.5 0-.7.1l-285.4 67.2c-.8.2-1.4.7-1.9 1.3-.4.7-.6 1.5-.4 2.3l40.2 170.8c.3 1.4 1.6 2.3 2.9 2.3.2 0 .5 0 .7-.1l285.4-67.2c1.6-.4 2.6-2 2.2-3.6l-40.2-170.8c-.2-.8-.7-1.4-1.3-1.9-.4-.2-1-.4-1.5-.4z" fill="#595B5C"/><g stroke-width="3"><path d="M1514.3 935.7l283.6-66.8" stroke="#FDD2B1"/><path d="M1517.6 950l283.6-66.8M1521 964.3l283.6-66.8M1524.4 978.5l283.6-66.8M1527.7 992.8l283.6-66.8M1531.1 1007.1l283.6-66.8M1534.5 1021.4l283.6-66.8M1537.8 1035.7l283.6-66.8M1541.2 1050l283.6-66.9M1544.5 1064.2l283.6-66.8" stroke="#E9F6FC"/></g><g fill="#D8D5D0"><path d="M1789.71 928.793l-233.518 55.009-2.43-10.318 233.517-55.009zM1782.994 900.101l-233.518 55.01-2.43-10.318 233.518-55.01z"/></g><g><path d="M1434.6 1163.9c-.7 0-1.3-.5-1.5-1.2L1393 992c-.1-.4 0-.8.2-1.1.2-.3.5-.6.9-.7l285.4-67.2h.3c.7 0 1.3.5 1.5 1.2l40.2 170.8c.2.8-.3 1.6-1.1 1.8L1435 1164c-.1-.1-.2-.1-.4-.1z" fill="#FFF"/><path d="M1679.8 924.4l40.2 170.8-285.4 67.2-40.2-170.8 285.4-67.2zm0-3c-.2 0-.5 0-.7.1l-285.4 67.2c-.8.2-1.4.7-1.9 1.3-.4.7-.6 1.5-.4 2.3l40.2 170.8c.3 1.4 1.6 2.3 2.9 2.3.2 0 .5 0 .7-.1l285.4-67.2c.8-.2 1.4-.7 1.9-1.3.4-.7.6-1.5.4-2.3l-40.2-170.8c-.3-1.3-1.5-2.3-2.9-2.3z" fill="#595B5C"/><g stroke-width="3"><path d="M1401.8 1019l283.6-66.8" stroke="#FDD2B1"/><path d="M1405.2 1033.3l283.6-66.8M1408.5 1047.6l283.6-66.8M1411.9 1061.9l283.6-66.8M1415.3 1076.2l283.6-66.8M1418.6 1090.5l283.6-66.9M1422 1104.7l283.6-66.8M1425.4 1119l283.6-66.8M1428.7 1133.3l283.6-66.8M1432.1 1147.6l283.6-66.8" stroke="#E9F6FC"/></g><g fill="#D8D5D0"><path d="M1644.638 1019.816l-200.813 47.304-2.43-10.317 200.812-47.305zM1684.033 1040.857l-233.518 55.01-2.43-10.318 233.518-55.01zM1670.6 983.474l-233.518 55.009-2.43-10.318 233.517-55.009zM1530.781 1107.286l-73.394 17.29-2.43-10.318 73.394-17.29z"/></g></g><g><path d="M1614.7 1206.1h-.3c-.4-.1-.7-.3-1-.6L1512 1062.3c-.5-.7-.3-1.6.4-2.1l239.3-169.4c.3-.2.6-.3.9-.3h.3c.4.1.7.3 1 .6l101.4 143.2c.5.7.3 1.6-.4 2.1l-239.3 169.4c-.3.2-.6.3-.9.3z" fill="#FFF"/><path d="M1752.7 892l101.4 143.2-239.3 169.4-101.4-143.2L1752.7 892zm0-3c-.6 0-1.2.2-1.7.6L1511.6 1059c-1.4 1-1.7 2.8-.7 4.2l101.4 143.2c.6.8 1.5 1.3 2.5 1.3.6 0 1.2-.2 1.7-.6l239.3-169.4c.6-.5 1.1-1.2 1.2-1.9.1-.8 0-1.6-.5-2.2l-101.4-143.2c-.6-1-1.5-1.4-2.4-1.4z" fill="#595B5C"/><g stroke-width="3"><path d="M1530.5 1084l237.8-168.4" stroke="#FDD2B1"/><path d="M1539 1096l237.7-168.4M1547.4 1108l237.8-168.4M1555.9 1119.9l237.8-168.3M1564.4 1131.9l237.8-168.4M1572.9 1143.9l237.8-168.4M1581.3 1155.9l237.8-168.4M1589.8 1167.8l237.8-168.3M1598.3 1179.8l237.8-168.4M1606.8 1191.8l237.8-168.4" stroke="#E9F6FC"/></g><g fill="#D8D5D0"><path d="M1783.481 974.177L1587.7 1112.79l-6.125-8.65 195.783-138.615zM1718.442 1056.356l-113.683 80.488-6.125-8.65 113.683-80.488zM1766.444 950.172l-195.782 138.614-6.125-8.65 195.783-138.614z"/></g></g><g><g transform="translate(1230 322)"><path stroke="#595B5C" stroke-width="3" fill="#FFF" d="M606.728 386.535L49.875 457.61.603 71.56 557.455.488z"/><path fill="#DBD4E8" d="M530.812 308.123l-124.88 15.94-26.371-206.614 124.88-15.939zM375.496 327.993l-124.88 15.94-26.37-206.614 124.879-15.939zM220.068 347.777l-124.88 15.939-26.37-206.613 124.88-15.939z"/><path fill="#D8D4D0" d="M500.313 69.166l-124.88 15.939-.924-7.241 124.88-15.94zM502.296 84.725l-124.88 15.939-.925-7.242 124.88-15.939zM498.319 53.509l-124.88 15.939-.925-7.241 124.88-15.94zM344.886 88.95l-124.88 15.939-.924-7.242 124.88-15.938zM346.98 104.594l-124.88 15.94-.925-7.242 124.88-15.939zM342.903 73.391L218.023 89.33l-.924-7.241 124.88-15.94zM189.57 108.82L64.69 124.757l-.924-7.24 124.88-15.94zM191.564 124.478l-124.88 15.939-.924-7.242 124.88-15.939zM187.575 93.163L62.695 109.1l-.924-7.24 124.88-15.94zM223.413 373.686l-124.88 15.939-.925-7.242 124.88-15.938zM378.741 353.915l-124.88 15.94-.924-7.242 124.88-15.939zM534.156 334.033l-124.88 15.939-.924-7.241 124.88-15.94z"/><g transform="translate(85 156)" fill="#FFF"><circle cx="88.8" cy="8.5" r="8.1"/><circle cx="48.8" cy="13.6" r="8.1"/><circle cx="8.7" cy="18.7" r="8.1"/></g><circle stroke="#595B5C" stroke-width="3" fill="#FFF" cx="107.1" cy="298.3" r="31.5"/><g transform="translate(241 136)"><g fill="#FFF"><circle cx="88.8" cy="8.6" r="8.1"/><circle cx="48.7" cy="13.7" r="8.1"/><circle cx="8.7" cy="18.8" r="8.1"/></g><circle stroke="#595B5C" stroke-width="3" fill="#FFF" cx="70.1" cy="159.1" r="28.3"/><path d="M96.8 58.8L13.5 69.5M98.9 74.9L15.6 85.5M100.9 90.9l-83.3 10.6M103 106.9l-83.3 10.6" stroke="#595B5C" stroke-width="3"/></g><path d="M181.9 214.7l-83.3 10.7M183.9 230.8l-83.3 10.6" stroke="#595B5C" stroke-width="3"/><g transform="translate(399 116)"><g fill="#FFF"><circle cx="8.4" cy="18.7" r="8.1"/><circle cx="48.4" cy="13.6" r="8.1"/><circle cx="88.5" cy="8.4" r="8.1"/></g><circle stroke="#595B5C" stroke-width="3" fill="#FFF" cx="117.6" cy="160.2" r="20.2"/><path d="M97.6 162.7l-58.5 7.5s-20-4-2.9-22.4 44.1-49.6 44.1-49.6 16.2-13.5 7.1-33.5S44.7 62 44.7 62" stroke="#595B5C" stroke-width="3"/><circle stroke="#595B5C" stroke-width="3" fill="#FFF" cx="27.1" cy="70" r="20.2"/></g><path fill="#E9F6FC" d="M593.1 292.9l11.7 91.9L501 398.1z"/></g></g><g><path d="M756.1 1158.7c-.6 0-1.2-.4-1.4-1.1L702.5 982c-.1-.4-.1-.8.1-1.1.2-.3.5-.6.9-.7L997 892.9c.1 0 .3-.1.4-.1.2 0 .5.1.7.2.3.2.6.5.7.9l52.2 175.6c.2.8-.2 1.6-1 1.9l-293.5 87.3h-.4z" fill="#FFF"/><path d="M997.4 894.3l52.2 175.6-293.5 87.3-52.2-175.6 293.5-87.3zm0-3c-.3 0-.6 0-.9.1L703 978.8c-.8.2-1.4.7-1.8 1.4-.4.7-.5 1.5-.2 2.3l52.2 175.6c.2.8.7 1.4 1.4 1.8.4.2.9.4 1.4.4.3 0 .6 0 .9-.1l293.5-87.3c.8-.2 1.4-.7 1.8-1.4.4-.7.5-1.5.2-2.3l-52.2-175.6c-.3-1.4-1.5-2.3-2.8-2.3z" fill="#595B5C"/><g stroke-width="3"><path d="M1004.9 923l-291.7 86.7" stroke="#FDD2B1"/><path d="M1009.2 937.7l-291.6 86.7M1013.6 952.4L722 1039.1M1018 967l-291.7 86.8M1022.4 981.7l-291.7 86.8M1026.7 996.4l-291.6 86.8M1031.1 1011.1l-291.7 86.7M1035.5 1025.8l-291.7 86.7M1039.8 1040.5l-291.6 86.7M1044.2 1055.2l-291.7 86.7" stroke="#E9F6FC"/></g><g fill="#D8D5D0"><path d="M748.538 1049.195l240.105-71.418 3.164 10.64-240.104 71.417zM757.24 1078.716l240.105-71.418 3.164 10.64-240.105 71.417zM739.74 1019.702l240.105-71.418 3.164 10.64-240.105 71.417zM878.306 1074.81l127.863-38.032 3.165 10.64-127.864 38.032z"/></g></g><path d="M691.4 1075.5s24.9-57.3 28.9-58.7c4-1.4 19 34.4 19 34.4l-47.9 24.3z" stroke="#5A5C5D" stroke-width="7" fill="#D8B28F"/><path d="M693 1128.5s2.8-62.4 6-65.1c3.2-2.7 46.6-18.3 46.6-18.3l6.7 18-59.3 65.4z" stroke="#5A5C5D" stroke-width="7" fill="#D8B28F"/><g><path d="M767.5 1150.3c-.5 0-1-.3-1.3-.7l-92.1-158.4c-.4-.7-.2-1.6.5-2.1l264.7-153.9c.2-.1.5-.2.8-.2h.4c.4.1.7.4.9.7l92.1 158.4c.4.7.2 1.6-.5 2.1l-264.7 153.9c-.3.1-.6.2-.8.2z" fill="#FFF"/><path d="M940.1 836.5l92.1 158.4-264.7 153.9-92.1-158.4 264.7-153.9zm0-3c-.5 0-1 .1-1.5.4L673.9 987.8c-.7.4-1.2 1.1-1.4 1.8-.2.8-.1 1.6.3 2.3l92.1 158.4c.6 1 1.6 1.5 2.6 1.5.5 0 1-.1 1.5-.4l264.7-153.9c.7-.4 1.2-1.1 1.4-1.8.2-.8.1-1.6-.3-2.3L942.7 835c-.6-1-1.6-1.5-2.6-1.5z" fill="#595B5C"/><g stroke-width="3"><path d="M954.1 862.5l-263 153" stroke="#F2B387"/><path d="M961.8 875.8l-263 152.9M969.5 889l-263 153M977.2 902.3l-263 152.9M984.9 915.5l-263 153M992.6 928.8l-263 152.9M1000.3 942l-263 153M1008 955.3l-263 152.9M1015.7 968.5l-263 153M1023.4 981.7l-263 153" stroke="#E9F6FC"/></g><g fill="#D8D5D0"><path d="M734.623 1045.686L951.179 919.76l5.58 9.596-216.557 125.926zM750.114 1072.276L966.671 946.35l5.58 9.596-216.557 125.926zM719.218 1019.046L935.775 893.12l5.58 9.596-216.558 125.926zM866.893 1040.016l115.325-67.06 5.58 9.596-115.325 67.06z"/></g></g><g fill="#595B5C"><path d="M940.1 836.5l37.1 63.9 20.2-6 24.8 83.2 10.1 17.3-4.2 2.4 21.6 72.7-293.5 87.3-17.1-57.4-63.7-109.5 264.7-153.9zm0-7c-1.2 0-2.4.3-3.5.9l-264.8 154c-3.3 1.9-4.5 6.2-2.5 9.6l63.3 108.8 16.8 56.6c.9 3 3.7 5 6.7 5 .7 0 1.3-.1 2-.3l293.5-87.3c3.7-1.1 5.8-5 4.7-8.7l-20.1-67.4a6.8 6.8 0 0 0 2.7-3.9c.5-1.8.2-3.7-.7-5.3l-9.6-16.6-24.5-82.4c-.9-3-3.7-5-6.7-5-.7 0-1.3.1-2 .3l-14.9 4.4-34.4-59.2c-1.3-2.3-3.6-3.5-6-3.5z"/></g><g><path d="M641.6 1491.3c-.6 0-1.2-.1-1.7-.2l-133-32.1c-2.2-.5-4-2-4.9-4.1-.9-2.1-.9-4.4.2-6.4 27.5-52.4 60.5-117.1 62.8-127.3 3.2-14.5 41.4-86.5 49-100.7.3-.6.7-1.1 1.1-1.6.7-.8 4.4-5.1 7.1-17.4 3.9-17.5 17.2-126.1 15.7-134.2-2.5-13.3-1.8-21.7 2-26.4 2.6-3.2 12-8.4 26.2-16 5.8-3.1 11.3-6.1 14.1-7.9.7-.4 1.4-.6 2.2-.6 3 0 6.7 0 33.1 50.8 1.3 0 2.6.8 3.2 2.1l1.7 4c8.2-13 25.1-36.2 31.1-44.5 33.2-45.4 35.8-45.9 37.3-46.2 1.1-.2 4.1-.8 7.9-.8 14.1 0 23.2 7.2 24.9 19.8 2.4 17.6-16 47.9-28.2 67.9-2.3 3.8-4.3 7.1-5.9 9.8-1.5 2.7-3 7.9-4.6 13.5-1.8 6.3-3.8 13.5-6.6 19.5-1.6 3.4-1.8 6.5-2.2 10.8-.3 3.7-.7 8.3-2 14.4-1.5 6.6-5.2 15.2-9.2 24.3-4.1 9.3-8.3 18.9-10.1 26.7-3.9 16.6-31.6 48.4-45.6 61.7-2.9 2.8-5.4 5.1-7.6 7.1-7.8 7-10.7 9.7-12.4 17.5-2.3 10.5-34.7 190.2-38.4 210.6-.6 3.4-3.6 5.9-7.2 5.9z" fill="#D8B28F"/><path d="M796.8 985.2c8.1 0 19.5 2.7 21.4 16.8 2.7 19.6-23.8 58.5-33.6 75.5-3.6 6.3-6.2 22.1-11.4 33.2-3.4 7.2-1.6 12.9-4.5 25.9-2.9 13-15.6 35.3-19.3 50.9-3.7 15.6-31.1 47.1-44.6 60-13.5 12.9-18.5 15-21 26.3-2.3 10.4-33.3 182.4-38.4 210.8-.3 1.8-1.9 3.1-3.7 3.1-.3 0-.6 0-.9-.1l-133-32.1c-2.4-.6-3.6-3.3-2.5-5.4 11.2-21.3 60.1-114.7 63.1-128.1 3.2-14.5 44.9-92.9 48.6-99.9.2-.3.4-.6.6-.8 1.1-1.2 5.1-6.2 8-19 3.4-15.1 17.5-125.9 15.7-135.6-1.8-9.7-2.4-19.1 1.3-23.6s31.2-17.9 39.5-23.2c.1-.1.2-.1.3-.1 5.6 0 36.1 60.8 37 62.4 3.3-9.7 66.8-95.7 70.2-96.4 1.4-.2 4-.6 7.2-.6zm-81.3 85.5l3.8 8.7-3.8-8.7zm81.3-92.5c-4.1 0-7.4.6-8.6.9-2.7.6-4.4 2.3-7.8 6.3-2.1 2.4-4.9 5.9-8.3 10.3-6.5 8.3-14.7 19.3-23.3 31-6.7 9.1-19.4 26.7-27.9 39.5-.8-1-1.9-1.7-3.1-2.1-3.4-6.5-7.6-14.3-11.7-21.8-4.4-7.8-8.1-14-11-18.5-4.8-7.3-8.1-10.9-12.7-10.9-1.5 0-2.9.4-4.1 1.2-2.7 1.7-8.2 4.7-13.9 7.8-16.3 8.8-24.3 13.3-27.2 16.9-4.6 5.6-5.4 14.9-2.8 29.2 1.2 9.3-12 116.4-15.7 132.8-2.6 11.8-6.1 15.6-6.2 15.8-.7.7-1.2 1.5-1.7 2.3-7.6 14.3-46 86.7-49.3 101.6-2 9.2-32.8 70.1-62.4 126.4-1.6 3-1.7 6.4-.3 9.5 1.4 3.1 4 5.3 7.3 6l133 32.1c.8.2 1.7.3 2.5.3 5.2 0 9.7-3.7 10.6-8.9 3.7-20.4 36-200.1 38.3-210.5 1.5-6.8 3.8-8.8 11.4-15.7 2.2-2 4.7-4.3 7.7-7.1 12.8-12.2 42.2-45.2 46.5-63.5 1.8-7.4 5.9-16.9 9.9-26.1 4-9.2 7.9-17.9 9.4-24.9 1.4-6.3 1.8-11.1 2.1-14.9.3-4.2.5-6.8 1.9-9.6 2.9-6.2 5-13.5 6.8-20 1.5-5.1 3-10.4 4.3-12.7 1.6-2.7 3.6-6 5.9-9.8 16.5-27 31-52.8 28.7-70.2-1.9-14.1-12.6-22.7-28.3-22.7z" fill="#5A5C5D"/></g><g stroke="#5A5C5D" stroke-width="7" fill="#D8B28F"><path d="M1151.4 1059.6s-21.4-12.2-24.4-12.8c-3-.6-8.6 2.4-7.9 6.7.6 4.3 2.4 13.4 2.4 13.4l25.1 7.3 4.8-14.6z"/><path d="M1288.9 1459.9s-22-59.9-28.1-62.9c-6.1-3.1-53.2-23.8-59.9-33-6.7-9.2-31.2-20.8-31.2-20.8s-10.4-2.4-17.7-7.9c-7.3-5.5-38.5-18.3-47.1-20.2-8.6-1.8-24.4-17.1-45.2-24.4-20.8-7.3-1.8-28.7 4.3-29.3 6.1-.6 40.3.6 51.3 6.1s36.1 14.7 49.5 14.1c13.4-.6 19.6-6.7 19.6-6.7s19.6-37.9 18.9-44.6c-.7-6.7 5.5-59.9 6.7-64.2 1.2-4.3-1.8-34-7.3-42.8-4.3-6.7-20.2-25.7-26.3-34.2l-4.9-2.4-28.1-15.9s-4.8-10-1.8-15.9c3.1-6.1 10.4-4.9 10.4-4.9s16.5 10.4 29.9 14.7c13.4 4.3 51.9 37.9 51.9 37.9s6.1 14.7 7.9 20.2c1.8 5.5 15.9 35.4 18.9 40.3 3.1 4.9 20.8 25.7 28.1 43.4 7.3 17.7 65.4 128.9 77.6 160.1 12.2 31.2 69.7 118.6 69.7 118.6l-136.9 18.3-10.2-43.6z"/></g><g transform="translate(1017 1071)"><path d="M63.4 264.6c-1.3 0-2.5-.2-3.8-.5l-9.6-2.7c-3.6-1-6.6-3.3-8.4-6.6-1.8-3.2-2.3-7-1.3-10.6l14.9-53C15 168.9-5 121.2 7.4 76.7 19.5 33.6 59.1 3.6 103.7 3.6c9.1 0 18.2 1.3 27 3.7 53.1 14.9 84.3 70.2 69.4 123.4-12.1 43-51.7 73.1-96.3 73.1-4.2 0-8.5-.3-12.7-.8l-14.4 51.4c-1.6 6-7.1 10.2-13.3 10.2z" fill="#FFF"/><path d="M103.7 7.1c8.6 0 17.4 1.2 26.1 3.6 51.4 14.4 81.3 67.7 67 119.1-11.9 42.7-50.7 70.6-93 70.6-5 0-10.1-.4-15.2-1.2l-15.2 54.4c-1.3 4.6-5.5 7.6-10 7.6-.9 0-1.9-.1-2.8-.4l-9.6-2.7c-5.5-1.6-8.8-7.3-7.2-12.9l15.5-55.4c0-.1.1-.2.1-.3-39.8-20.6-61.1-66.9-48.5-111.8C22.7 35 61.5 7.1 103.7 7.1zm0-7c-22.2 0-44.2 7.3-62 20.7C23.3 34.6 10.2 53.6 4 75.8c-6.5 23.1-4.7 47.8 5 69.7 8.7 19.8 23.6 36.5 42.1 47.4L37 243.3c-2.6 9.3 2.8 18.9 12.1 21.5l9.6 2.7c1.5.4 3.1.6 4.7.6 7.8 0 14.7-5.2 16.8-12.7l13.6-48.6c3.4.3 6.7.5 10.1.5 22.2 0 44.2-7.3 62-20.7 18.4-13.8 31.5-32.8 37.7-55 7.5-26.6 4.1-54.6-9.5-78.7s-35.7-41.5-62.4-49c-9.1-2.5-18.5-3.8-28-3.8z" fill="#595B5C"/><circle stroke="#5A5C5D" stroke-width="2" fill="#D8D5D0" cx="103.6" cy="104.4" r="87"/><circle stroke="#595B5C" stroke-width="3" fill="#69554F" cx="103.6" cy="104.4" r="74"/><circle stroke="#5A5C5D" stroke-width="3" fill="#A07E75" cx="121.4" cy="149.6" r="9.9"/><circle stroke="#5A5C5D" stroke-width="3" fill="#A07E75" cx="87.3" cy="149.1" r="7.2"/></g><g><g stroke-width="3"><path d="M1880.4 600.1v325.2c0 8.8-7.1 15.7-15.9 15.7H1432c-8.8 0-15.3-7-15.3-15.8V600c0-8.8 6.3-15.6 15.1-15.6l432.7.1c8.8.1 15.9 6.9 15.9 15.6z" stroke="#595B5C" fill="#F2F2F2"/><path d="M1837.5 619.9v285.9h-382.8V620h382.8z" stroke="#595B5C" fill="#6B6B6B"/><path d="M1860.2 762.8c0 2.3-1.9 4.2-4.2 4.2-2.3 0-4.2-1.9-4.2-4.2 0-2.3 1.9-4.2 4.2-4.2 2.3 0 4.2 1.9 4.2 4.2zM1444.3 761.5c0 5.1-4.2 9.3-9.3 9.3-5.1 0-9.3-4.2-9.3-9.3 0-5.1 4.2-9.3 9.3-9.3 5.1 0 9.3 4.2 9.3 9.3z" stroke="#595A5B" fill="#FFF"/></g><path fill="#D9EACF" d="M1458.9 663.7h123.5v35.5h-123.5z"/><path fill="#5485B4" d="M1459 623.7h376.6v35.7H1459z"/><path fill="#D9EACF" d="M1458.9 702.2h123.5v35.5h-123.5zM1458.9 740.7h123.5v35.5h-123.5z"/><path fill="#5485B4" d="M1458.9 779.2h123.5v14.3h-123.5z"/><path fill="#EAE8E3" d="M1585.5 702.2H1709v35.5h-123.5zM1585.5 740.7H1709v35.5h-123.5zM1585.5 663.7H1709v35.5h-123.5z"/><path fill="#FCF3BE" d="M1458.9 796.3h123.5v35.5h-123.5zM1458.9 834.8h123.5v35.5h-123.5zM1458.9 873.3h123.5V902h-123.5z"/><path fill="#EAE8E3" d="M1585.2 779.2h123.5v35.5h-123.5z"/><path fill="#D9EACF" d="M1458.9 663.7h123.5v35.5h-123.5zM1458.9 702.2h123.5v35.5h-123.5zM1458.9 740.7h123.5v35.5h-123.5z"/><path fill="#EAE8E3" d="M1585.5 779.2H1709v35.5h-123.5z"/><path fill="#BEDFF6" d="M1712.1 702.2h123.5v35.5h-123.5zM1712.1 740.7h123.5v35.5h-123.5zM1712.1 663.7h123.5v35.5h-123.5zM1712.1 779.2h123.5v35.5h-123.5z"/><path fill="#EAE8E3" d="M1585.5 817.7H1709v35.5h-123.5z"/></g><g><path d="M115 275.4c-1.4 0-2.2 0-13.5-36.2C89.5 201 79.1 147 79 146.5l-.3-1.4L222 110.6 255.4 249l-1.4.4c-.5.1-49 13.6-72.9 18.4-21.4 4.4-57 6.9-64.5 7.4v.1l-1.6.1z" fill="#F1B387"/><path d="M220.9 112.4L253.5 248s-48.7 13.5-72.8 18.4c-24.1 4.9-65.7 7.5-65.7 7.5v.1c-.3 0-1.9-2.5-12.1-35.1-12.1-38.6-22.5-92.5-22.5-92.5l140.5-34zm2.2-3.6l-2.9.7-140.4 33.8-2.8.7.5 2.8c.1.5 10.6 54.6 22.6 92.9 4.4 14 7.7 24.1 9.8 29.9 1.9 5.2 2.7 7.3 5.1 7.3.3 0 .6 0 .9-.1 5.6-.4 42.8-2.9 65.4-7.5 23.9-4.9 72.5-18.3 73-18.5l2.8-.8-.7-2.8-32.6-135.6-.7-2.8z" fill="#5A5C5D"/><g fill="#595B5C"><path d="M117.6 231.4c-.3-.1-.5-.3-.6-.5-.8-4.2-1.7-8-2.5-11.4l-.6-2.4-.3-1.4-1.1-4.2c-.8-2.9-1.5-5.6-2.1-8.1-1-3.9-1.7-7.8-2.1-11.6-.1-.1-.1-.2-.1-.3-.1-.4.1-.7.6-1 .7-.3 1.3-.6 1.9-.8 1.2-.3 2.3-.2 3.4.1 1.1.4 2.1 1 3 1.9 1 1 1.9 2.2 2.6 3.7.8 1.5 1.4 3.2 1.8 5 .8 3.4 1 6.5.4 9.2-.3 1.6-.9 2.9-1.8 4-.9 1-2 1.7-3.5 1.9h-.2l.2.8.6 2.4c.8 3.4 1.7 7.2 2.5 11.4.1.2 0 .5-.3.7-.2.2-.5.4-.8.5-.3.3-.6.3-1 .1zm-1.3-17.6c.1-.1.2-.1.3-.1.6-.1 1.2-.5 1.7-1.1.5-.7.8-1.6 1.1-2.8.5-2.5.3-5.3-.4-8.5-.4-1.7-1-3.3-1.6-4.7-.7-1.4-1.5-2.6-2.3-3.5-.7-.7-1.5-1.2-2.6-1.5-.5-.1-.9 0-1.4.1.5 3.8 1.2 7.6 2.1 11.5.5 2.1 1.4 5.7 2.8 10.7.1 0 .2 0 .3-.1zM142.5 225.6c-.6-.5-1.3-1.4-1.9-2.5-.7-1.1-1.5-2.8-2.6-5.1l-.1-.3c-.1-.3-.2-.5-.3-.7-.1-.2-.2-.3-.2-.4-1.4-3.1-2.5-5.2-3.3-6.5-.4-.7-1-1.3-1.6-1.8l-.2-.2c-.1 0-.1-.1-.2-.1.9 3.4 1.5 5.8 1.8 7.1 1 4.3 1.8 8.1 2.3 11.4.1.2 0 .5-.3.7-.2.2-.5.4-.9.5-.3.1-.7 0-1-.1-.3-.1-.5-.4-.5-.6-.4-2.7-1.2-6.5-2.3-11.4-.4-1.5-1-4.2-2.1-8.1l-.3-1.1-.5-2.2c-1.2-4.4-2.3-8.5-3.2-12.1l-.9-3.9c-.1-.3 0-.5.3-.8 0-.1.1-.2.3-.3.9-.6 1.8-.9 2.6-1.1 2-.5 3.7-.1 5.2 1.2 1 .8 1.8 1.8 2.5 3.1s1.2 2.7 1.6 4.3c.7 2.7.7 5.2.1 7.6-.4 1.4-.9 2.5-1.6 3.4-.4.4-.8.8-1.3 1.1 0 0 .2.1.3.2.6.4 1.3 1.1 2.1 2.2 1 1.5 2.1 3.7 3.5 6.6 0 0 .1.3.4.8l.1.4.1.2c1.2 2.5 2 4.1 2.5 5.1.5.9 1 1.6 1.5 2 .2.1.3.2.3.4.1.4-.1.7-.4.9-.1.1-.3.2-.6.3-.4.1-.9 0-1.2-.2zm-11-19.9c.7-.1 1.3-.5 1.8-1.1.5-.6.9-1.4 1.2-2.5.5-2.1.5-4.5-.2-7-.3-1.4-.8-2.7-1.4-3.8-.6-1.1-1.3-2-2.2-2.6-.9-.8-1.9-1-2.9-.8-.1 0-.4.1-.8.3l.8 3.8c.9 3.5 1.9 7.4 3.1 11.7l.6 2zM150.9 223.9c-.3-.1-.5-.3-.5-.6-.3-2.6-.9-5.4-1.7-8.6l-.5-2-.5-2.2c-.7-3.1-1.3-5.6-1.8-7.7l-.9-3.7c-.2-1-.5-2.6-1-4.5-1.1-4.5-2.1-8-3-10.6-.1-.2 0-.5.2-.7.2-.3.5-.4.8-.6.3-.1.7-.1 1 0 .3.1.5.3.6.5.9 2.4 2 6.2 3.2 11.5l.9 3.7.9 3.7c.2.7.3 1.3.3 1.7l1.4 6.3.5 2 .7 2.5c.6 2.6 1.1 5.4 1.5 8.2 0 .3-.1.5-.3.8-.2.3-.5.4-.8.4-.4.1-.7 0-1-.1zM162 220c-1.1-.6-2.1-1.4-3-2.6-1.1-1.5-2.2-3.5-3.2-6.1-1-2.6-1.9-5.4-2.6-8.4-1.2-4.9-1.8-9.4-2-13.4-.1-2.6 0-4.7.4-6.2s1-2.6 2-3.1l.3-.1c.2-.1.4-.2.5-.2 3.3-.8 5.7.3 7.4 3.4.2.5.5.9.8 1.3.1.2.1.5.2.7l.3.6s.1.1.1.2c1.9 4.1 3.5 8.7 4.8 13.8.2 1 .6 2.6 1 4.8 1.4 7.6 1.1 12.2-.9 14-.9.9-1.9 1.5-3 1.8-.9.2-2 .1-3.1-.5zm4.4-2.3c.5-.5.8-1.9.9-4.2.1-2-.2-4.7-.8-8.1-.3-1.7-.6-3.3-1-4.9-1.1-4.5-2.7-9-4.8-13.4l-.1-.3-.2-.6-.3-.5-.7-1.4c-1.2-2.1-2.7-2.9-4.5-2.5l-.1.1c-.1.2-.2.3-.2.4-.2.4-.4.9-.5 1.5-.3 1.1-.4 2.9-.3 5.4.2 4.3.8 8.8 2 13.3.7 2.9 1.5 5.6 2.5 8 1 2.4 2 4.4 3 5.8 1.1 1.3 2 2.1 2.8 2.2.3.1.6.1.9 0 .4-.1.9-.4 1.4-.8zM185.6 215.2c-.6-.5-1.3-1.4-1.9-2.5-.7-1.1-1.5-2.8-2.6-5.1l-.1-.3c-.1-.3-.2-.5-.3-.7-.1-.2-.2-.3-.2-.4-1.4-3.1-2.5-5.2-3.3-6.5-.4-.7-1-1.3-1.6-1.8l-.2-.2c-.1 0-.1-.1-.2-.1.9 3.4 1.5 5.8 1.8 7.1 1 4.3 1.8 8.1 2.3 11.4.1.2 0 .5-.3.7-.2.2-.5.4-.9.5-.3.1-.7 0-1-.1-.3-.1-.5-.4-.5-.6-.4-2.7-1.2-6.5-2.3-11.4-.4-1.5-1-4.2-2.1-8.1l-.3-1.1-.5-2.2c-1.2-4.4-2.3-8.5-3.2-12.1l-.9-3.9c-.1-.3 0-.5.3-.8 0-.1.1-.2.3-.3.9-.6 1.8-.9 2.6-1.1 2-.5 3.7-.1 5.2 1.2 1 .8 1.8 1.8 2.5 3.1s1.2 2.7 1.6 4.3c.7 2.7.7 5.2.1 7.6-.4 1.4-.9 2.5-1.6 3.4-.4.4-.8.8-1.3 1.1 0 0 .2.1.3.2.6.4 1.3 1.1 2.1 2.2 1 1.5 2.1 3.7 3.5 6.6 0 0 .1.3.4.8l.1.4.1.2c1.2 2.5 2 4.1 2.5 5.1.5.9 1 1.6 1.5 2 .2.1.3.2.3.4.1.4-.1.7-.4.9-.1.1-.3.2-.6.3-.5.1-.9.1-1.2-.2zm-11.1-19.9c.7-.1 1.3-.5 1.8-1.1.5-.6.9-1.4 1.2-2.5.5-2.1.5-4.5-.2-7-.3-1.4-.8-2.7-1.4-3.8-.6-1.1-1.3-2-2.2-2.6-.9-.8-1.9-1-2.9-.8-.1 0-.4.1-.8.3l.8 3.8c.9 3.5 1.9 7.4 3.1 11.7l.6 2zM193.9 213.5c-.3-.1-.5-.3-.5-.6-.3-2.6-.9-5.4-1.7-8.6l-.5-2-.5-2.2c-.7-3.1-1.3-5.6-1.8-7.7l-.9-3.7c-.2-1-.5-2.6-1-4.5-1.1-4.5-2.1-8-3-10.6-.1-.2 0-.5.2-.7.2-.3.5-.4.8-.6.3-.1.7-.1 1 0 .3.1.5.3.6.5.9 2.4 2 6.2 3.2 11.5l.9 3.7.9 3.7c.2.7.3 1.3.3 1.7l1.4 6.3.5 2 .7 2.5c.6 2.6 1.1 5.4 1.5 8.2 0 .3-.1.5-.3.8-.2.2-.5.4-.8.4-.4.1-.7.1-1-.1zM206.9 210.4c-.3-.1-.5-.3-.5-.5l-.7-3c-.4-1.6-.7-2.9-1-3.8l-.4-1.6-1.1-4.2-.6-3c-.9-4.3-1.8-8.7-2.9-13.1-.8-3.5-1.7-6.6-2.4-9.3l-2.4.6-2 .4c-.3.1-.7.1-.9-.1-.3-.1-.5-.3-.5-.6-.1-.3 0-.5.2-.7.2-.2.5-.4.9-.5l2.2-.5 3-.8c.6-.2 1.2-.3 1.6-.5 1.5-.4 3-.8 4.6-1.2.3-.1.6-.1.9.1.3.1.5.3.5.5.1.2 0 .5-.2.7-.2.3-.5.4-.8.5-1.6.4-3.1.8-4.6 1.2.8 2.7 1.6 5.8 2.4 9.3 1.1 4.5 2 8.9 2.9 13.2l.6 2.9 1 4.1.4 1.6c.3.9.6 2.2 1 3.8.3 1.4.6 2.4.7 3 0 .2-.1.5-.3.8-.2.3-.5.4-.8.4-.2.4-.5.4-.8.3zM223.3 206.2c-.3-.1-.5-.3-.6-.5-.6-2.6-1.4-5.9-2.2-9.8-.4-1.6-.8-3.4-1.1-5.5l-.5-2.5-.4-.4-.1-.3c-.1 0-.1-.1-.1-.2-.3-.3-.7-1.1-1.4-2.3-1.3-2.3-3.9-7.4-7.8-15.2l-.5-1v-.1c-.1-.2 0-.5.2-.7.2-.2.4-.4.7-.5h.1c.3-.1.6-.1.9 0 .3.1.5.2.6.5 3.7 7.6 6.4 12.9 8.1 15.9l.1-1 1.5-17.3c0-.2.1-.4.3-.6.2-.2.4-.3.7-.4.4-.1.7 0 1.1.1.3.2.5.4.5.7-.9 9.8-1.5 17.3-1.9 22.5v.2c.8 3.9 1.4 6.5 1.7 7.8.7 3.6 1.4 6.8 2.1 9.8.1.2 0 .5-.2.7-.2.2-.5.4-.8.5-.3-.3-.6-.3-1-.4z"/></g></g><g fill="#595B5C"><path d="M220.9 112.4l3 12.6h191.8v175.4H122.6v-27.1c-4.6.3-7.5.5-7.5.5v.1c-.3 0-1.9-2.5-12.1-35.1-12.1-38.6-22.5-92.5-22.5-92.5l42.1-10.1V125h46.1l52.2-12.6zm0-7c-.5 0-1.1.1-1.6.2L167.9 118h-45.3c-3.9 0-7 3.1-7 7v5.6l-36.7 8.8c-3.6.9-5.9 4.5-5.2 8.1.1.5 10.6 54.8 22.7 93.3 4.4 14 7.7 24.2 9.9 30.1.8 2.3 1.5 3.9 2 5 1.9 4.1 4.8 5 6.9 5h.5v19.5c0 3.9 3.1 7 7 7h293.2c3.9 0 7-3.1 7-7V125c0-3.9-3.1-7-7-7H229.5l-1.7-7.2c-.4-1.8-1.6-3.4-3.2-4.3-1.1-.8-2.4-1.1-3.7-1.1z"/></g><g fill="#5A5C5D"><path d="M1721.7 260.7l28 66.6 37.6-4.8 17.3 135.2 53.4 126.8h6.5c8.8 0 15.9 6.8 15.9 15.6v325.2c0 8.8-7.1 15.7-15.9 15.7h-48.7l14.2 60.1 24 34-239.3 169.4-51.3-72.5-128.8 30.3-40.2-170.8 125.1-29.5-5-21.1h-82.6c-8.8 0-15.3-7-15.3-15.8v-114l-61.5 25.9-26.8-63.8-48.6 6.2-22.3-174.8-53.2-126.4 35.2-14.8-9-70.1 252-32.2 239.3-100.4zm0-7c-.9 0-1.8.2-2.7.5l-238.4 100.4-251 32c-3.8.5-6.5 4-6.1 7.8l8.3 64.8-30.3 12.7c-3.6 1.5-5.2 5.6-3.7 9.2l52.8 125.5 22.2 173.9c.5 3.5 3.5 6.1 6.9 6.1.3 0 .6 0 .9-.1l43.4-5.5 24.8 58.9c.7 1.7 2.1 3.1 3.8 3.8.8.3 1.7.5 2.6.5.9 0 1.8-.2 2.7-.5l51.7-21.8v103.4c0 12.8 9.8 22.8 22.3 22.8h77.1l2.1 8.9-118.3 27.9c-3.8.9-6.1 4.7-5.2 8.4l40.2 170.8c.4 1.8 1.6 3.4 3.1 4.3 1.1.7 2.4 1 3.7 1 .5 0 1.1-.1 1.6-.2l124.2-29.2 48.6 68.6c1.1 1.5 2.7 2.5 4.5 2.9.4.1.8.1 1.2.1 1.4 0 2.9-.4 4-1.3l239.3-169.4c1.5-1.1 2.5-2.7 2.9-4.5.3-1.8-.1-3.7-1.2-5.2l-23.3-32.8-11.8-50.2h39.9c12.6 0 22.9-10.2 22.9-22.7V600.1c0-6.1-2.4-11.8-6.8-16.1-4.3-4.2-10-6.5-16.1-6.5h-1.8l-51.2-121.7-17.1-134.3c-.2-1.8-1.2-3.5-2.7-4.7-1.2-1-2.7-1.5-4.3-1.5-.3 0-.6 0-.9.1l-32.4 4.1-26-61.7c-1-2.5-3.6-4.1-6.4-4.1z"/></g><g stroke="#595B5C" stroke-width="3" fill="#F1B7B7"><path d="M1315.4 111.7s202.7-91.3 246.7-129.9c44-38.6-199.9-113.3-199.9-113.3s-137.7 94.3-153 114.2c-15.2 19.8 106.2 129 106.2 129z"/><path d="M1324.6 106.6S1242.1 30.1 1217-30.3L1131.9 25s78.3 118.9 101.7 123c23.4 4.1 91-41.4 91-41.4z"/></g><g><path d="M729.1 126.1c-.3 0-.6 0-.8-.1-4.2-1-104.1-25.3-126.3-39.8-2.4-1.5-2.1-4.2-.9-10.4.8-3.9 2-9.5 3.8-16.6 3-12 7.3-28.5 13-49 9.7-35 19.9-70.2 20-70.5.3-1 1-1.8 1.9-2.2.5-.2 1-.3 1.5-.3s.9.1 1.4.3L775.9-6c1.7.7 2.6 2.7 1.9 4.4l-45.4 125.4c-.5 1.4-1.9 2.3-3.3 2.3z" fill="#F1B7B7"/><path d="M641.1-59.4L774.5-2.8l-45.4 125.4s-103.3-25-125.3-39.3c-3.4-2.2 37.3-142.7 37.3-142.7zm0-7c-1 0-2.1.2-3 .7-1.8.9-3.2 2.4-3.7 4.4-.1.4-10.3 35.6-20 70.6-5.7 20.6-10.1 37.1-13 49.1-1.8 7.2-3.1 12.9-3.8 16.8-1.1 5.7-2.1 11 2.5 14 22.7 14.8 123.2 39.2 127.4 40.2.6.1 1.1.2 1.7.2 2.9 0 5.6-1.8 6.6-4.6L781.1-.4c1.3-3.5-.4-7.4-3.8-8.8L643.9-65.8c-.9-.4-1.8-.6-2.8-.6z" fill="#595B5C"/></g><g fill="#5A5C5D"><path d="M1362.2-131.5s243.9 74.6 199.9 113.3C1522 17 1350.1 96 1319.9 109.7c-14.9 9.6-61.5 38.6-83 38.6-1.2 0-2.3-.1-3.3-.3-23.4-4.1-101.7-123-101.7-123l85.1-55.3c.5 1.2 1.1 2.5 1.6 3.7 35-30.6 143.6-104.9 143.6-104.9zm0-7c-1.4 0-2.8.4-4 1.2-4.2 2.9-99.1 67.9-138.5 100.6-.2-.1-.4-.2-.7-.2-.7-.2-1.4-.3-2.1-.3-1.3 0-2.7.4-3.8 1.1L1128 19.2c-1.6 1-2.7 2.6-3 4.4-.4 1.8 0 3.7 1 5.3.2.3 19.9 30.2 42.3 60.3 13.2 17.7 24.7 32.1 34.3 42.6 13.4 14.7 22.5 21.9 29.7 23.2 1.4.2 2.9.4 4.5.4 10.5 0 26-5.4 47.3-16.5 16.1-8.4 31.3-17.9 39.2-23 34.7-15.9 203-93.4 243.4-128.9 8-7 8.3-14.6 7.2-19.7-2.5-11.5-14.9-23.4-39-37.3-17.6-10.2-41.5-21.3-70.9-33-49.8-19.9-99.3-35.1-99.8-35.3-.6-.1-1.3-.2-2-.2z"/></g><path d="M630.6-23s110 45 132 47" stroke="#595B5C" stroke-width="3" fill="#F1B7B7"/></g></svg>